<svg width="24" height="24" viewBox="0 0 24 24" fill="none" xmlns="http://www.w3.org/2000/svg">
<g clip-path="url(#clip0)">
<path d="M11.7384 20.051C11.7384 18.7872 10.714 17.7627 9.45038 17.7627C8.18657 17.7627 7.16211 18.7872 7.16211 20.0507C7.16211 21.3146 8.18657 22.339 9.45038 22.339C10.7133 22.3376 11.7371 21.3141 11.7384 20.051ZM7.9737 20.051C7.9737 19.2353 8.63471 18.5743 9.45038 18.5743C10.2658 18.5743 10.9268 19.2353 10.9268 20.0507C10.9268 20.8664 10.2658 21.5274 9.45038 21.5274C8.63516 21.5265 7.97461 20.866 7.9737 20.051Z" fill="#0F0D0D"/>
<path d="M17.9228 22.339C19.1866 22.3392 20.2111 21.3148 20.2111 20.051C20.2113 18.7872 19.1868 17.7627 17.923 17.7627C16.6592 17.7627 15.6348 18.7872 15.6348 20.051C15.6364 21.3139 16.6597 22.3374 17.9228 22.339ZM17.9228 18.5743C18.7383 18.5743 19.3995 19.2353 19.3995 20.0507C19.3997 20.8662 18.7385 21.5274 17.923 21.5274C17.1076 21.5274 16.4464 20.8664 16.4464 20.051C16.4473 19.236 17.1078 18.5754 17.9228 18.5743Z" fill="#0F0D0D"/>
<path d="M0.405795 1.4493H2.8811C3.69563 1.44613 4.39015 2.0392 4.51424 2.84445L6.4737 15.2219C6.6587 16.422 7.69403 17.3063 8.90847 17.3016H21.0203C21.2442 17.3016 21.4261 17.1197 21.4261 16.8958C21.4261 16.6716 21.2442 16.49 21.0203 16.49H8.90847C8.09393 16.4932 7.39942 15.8999 7.27532 15.0948L6.94222 12.9905H19.3468C20.3971 12.99 21.3319 12.3247 21.6761 11.3326L23.9775 4.69045C24.0207 4.56636 24.001 4.42913 23.9249 4.32202C23.8486 4.21514 23.7254 4.15151 23.5941 4.15151H5.54277L5.31587 2.71741C5.13086 1.51724 4.09554 0.632959 2.8811 0.637714H0.405795C0.181611 0.637714 0 0.819552 0 1.04351C0 1.26769 0.181611 1.4493 0.405795 1.4493ZM23.0239 4.96332L20.9093 11.0668C20.6783 11.7323 20.0513 12.1786 19.3468 12.1789H6.8136L5.67116 4.9631L23.0239 4.96332Z" fill="#0F0D0D"/>
</g>
<defs>
<clipPath id="clip0">
<rect width="24" height="24" fill="white"/>
</clipPath>
</defs>
</svg>
