<svg width="21" height="22" viewBox="0 0 21 22" fill="none" xmlns="http://www.w3.org/2000/svg">
<path d="M17.9246 3.22184C15.9414 1.14417 13.3046 0 10.5 0C7.69539 0 5.05858 1.14417 3.07539 3.22184C1.09216 5.29947 0 8.06184 0 11C0 13.9382 1.09216 16.7005 3.07539 18.7782C5.05858 20.8558 7.69539 22 10.5 22C13.3046 22 15.9414 20.8558 17.9246 18.7782C19.9078 16.7005 21 13.9382 21 11C21 8.06184 19.9078 5.29947 17.9246 3.22184ZM10.5 21.3053C5.07593 21.3053 0.663141 16.6824 0.663141 11C0.663141 5.31764 5.07593 0.694719 10.5 0.694719C15.9241 0.694719 20.3369 5.31764 20.3369 11C20.3369 16.6824 15.9241 21.3053 10.5 21.3053Z" fill="#0F0D0D"/>
<path d="M14.2676 4.16797H6.73345C5.21488 4.16797 3.97949 5.46223 3.97949 7.05306V14.9461C3.97949 16.5369 5.21492 17.8311 6.73345 17.8311H14.2677C15.7862 17.8311 17.0216 16.5369 17.0216 14.946V7.05306C17.0216 5.46219 15.7862 4.16797 14.2676 4.16797ZM16.3584 14.946C16.3584 16.1538 15.4205 17.1364 14.2676 17.1364H6.73345C5.58058 17.1364 4.64263 16.1538 4.64263 14.946V7.05306C4.64263 5.8453 5.58058 4.86269 6.73345 4.86269H14.2677C15.4205 4.86269 16.3585 5.8453 16.3585 7.05306V14.946H16.3584Z" fill="#0F0D0D"/>
<path d="M13.9213 10.7942C13.8233 8.96661 12.4037 7.49634 10.6582 7.41389C8.64401 7.31875 6.98587 9.05667 7.07787 11.167C7.15765 12.9958 8.56223 14.4823 10.3069 14.5835C11.0432 14.6262 11.7327 14.4233 12.3086 14.0466C12.488 13.9293 12.5173 13.6679 12.3677 13.5113C12.3661 13.5096 12.3646 13.508 12.363 13.5064C12.254 13.3921 12.085 13.3749 11.9541 13.4602C11.5238 13.7403 11.0151 13.9002 10.471 13.8942C8.93477 13.8773 7.69524 12.5259 7.73851 10.9171C7.78203 9.29798 9.10084 8.0072 10.6776 8.11071C12.0363 8.19991 13.1422 9.33489 13.2541 10.7563C13.2997 11.3353 13.1808 11.8823 12.942 12.3529C12.8736 12.4876 12.8947 12.6529 12.9977 12.7608C12.9994 12.7625 13.0011 12.7643 13.0028 12.7661C13.1575 12.9282 13.4193 12.8901 13.5227 12.6881C13.809 12.1283 13.9582 11.4807 13.9213 10.7942Z" fill="#0F0D0D"/>
<path d="M14.0366 7.75791C14.5249 7.75791 14.9208 7.34319 14.9208 6.83159C14.9208 6.32 14.5249 5.90527 14.0366 5.90527C13.5482 5.90527 13.1523 6.32 13.1523 6.83159C13.1523 7.34319 13.5482 7.75791 14.0366 7.75791Z" fill="#0F0D0D"/>
</svg>
