<svg width="144" height="49" viewBox="0 0 144 49" fill="none" xmlns="http://www.w3.org/2000/svg">
<path d="M74.08 38.744L74.144 40.12C74.3787 39.64 74.7307 39.2613 75.2 38.984C75.6693 38.7067 76.1813 38.568 76.736 38.568C77.2373 38.568 77.6693 38.7067 78.032 38.984C78.3947 39.2507 78.608 39.5973 78.672 40.024C78.9173 39.5547 79.2693 39.1973 79.728 38.952C80.1867 38.696 80.6773 38.568 81.2 38.568C81.7973 38.568 82.272 38.744 82.624 39.096C82.976 39.4373 83.1573 39.8853 83.168 40.44V45H82.416V40.6C82.4053 40.2267 82.288 39.912 82.064 39.656C81.84 39.3893 81.4987 39.2453 81.04 39.224C80.624 39.224 80.24 39.3307 79.888 39.544C79.536 39.7573 79.248 40.04 79.024 40.392C78.8107 40.744 78.6933 41.1387 78.672 41.576V45H77.92V40.6C77.9093 40.2267 77.7867 39.912 77.552 39.656C77.328 39.3893 76.9867 39.2453 76.528 39.224C76.1013 39.224 75.7067 39.3307 75.344 39.544C74.992 39.7573 74.7093 40.0507 74.496 40.424C74.2827 40.7867 74.176 41.192 74.176 41.64V45H73.424V38.744H74.08ZM87.9858 45.176C87.3991 45.176 86.9298 45.0053 86.5778 44.664C86.2258 44.312 86.0391 43.8587 86.0178 43.304V38.744H86.7698V43.08C86.7911 43.4853 86.9191 43.8213 87.1538 44.088C87.3991 44.3547 87.7618 44.4987 88.2418 44.52C88.6471 44.52 89.0258 44.4133 89.3778 44.2C89.7298 43.9867 90.0124 43.6987 90.2258 43.336C90.4498 42.9627 90.5618 42.5413 90.5618 42.072V38.744H91.3138V45H90.6418L90.5938 43.672C90.3804 44.1093 90.0284 44.472 89.5378 44.76C89.0578 45.0373 88.5404 45.176 87.9858 45.176ZM95.6304 45.128C95.2677 45.128 94.889 45.064 94.4944 44.936C94.0997 44.7973 93.7797 44.5787 93.5344 44.28L93.8864 43.784C94.0997 44.008 94.3504 44.1893 94.6384 44.328C94.937 44.456 95.2517 44.52 95.5824 44.52C95.945 44.52 96.2757 44.4347 96.5744 44.264C96.873 44.0933 97.0224 43.7947 97.0224 43.368C97.0224 43.0693 96.937 42.84 96.7664 42.68C96.6064 42.52 96.3984 42.392 96.1424 42.296C95.897 42.1893 95.6357 42.0933 95.3584 42.008C94.8997 41.8587 94.521 41.656 94.2224 41.4C93.9344 41.144 93.7904 40.7813 93.7904 40.312C93.7904 39.8 93.9664 39.3893 94.3184 39.08C94.681 38.76 95.1397 38.6 95.6944 38.6C96.025 38.6 96.3504 38.6533 96.6704 38.76C97.001 38.8667 97.2997 39.048 97.5664 39.304L97.2304 39.832C97.0597 39.5973 96.8304 39.4373 96.5424 39.352C96.265 39.2667 96.0197 39.2187 95.8064 39.208C95.529 39.208 95.2464 39.2933 94.9584 39.464C94.681 39.624 94.5424 39.8747 94.5424 40.216C94.5424 40.4613 94.6117 40.664 94.7504 40.824C94.889 40.9733 95.065 41.096 95.2784 41.192C95.5024 41.288 95.7317 41.3787 95.9664 41.464C96.2757 41.56 96.5637 41.6773 96.8304 41.816C97.1077 41.944 97.3317 42.12 97.5024 42.344C97.6837 42.5573 97.7744 42.8453 97.7744 43.208C97.7744 43.7627 97.593 44.2213 97.2304 44.584C96.8784 44.9467 96.345 45.128 95.6304 45.128ZM100.049 38.744H100.801V45H100.049V38.744ZM99.889 36.44C99.889 36.2907 99.9477 36.168 100.065 36.072C100.182 35.9653 100.31 35.912 100.449 35.912C100.598 35.912 100.726 35.9653 100.833 36.072C100.94 36.168 100.993 36.2907 100.993 36.44C100.993 36.6 100.94 36.7333 100.833 36.84C100.726 36.936 100.598 36.984 100.449 36.984C100.31 36.984 100.182 36.9307 100.065 36.824C99.9477 36.7173 99.889 36.5893 99.889 36.44ZM108.475 44.392C108.187 44.6267 107.861 44.808 107.499 44.936C107.136 45.064 106.757 45.128 106.363 45.128C105.723 45.128 105.152 44.9893 104.651 44.712C104.149 44.424 103.755 44.0347 103.467 43.544C103.179 43.0533 103.035 42.4933 103.035 41.864C103.035 41.2347 103.184 40.6747 103.483 40.184C103.781 39.6933 104.176 39.3093 104.667 39.032C105.168 38.744 105.712 38.6 106.299 38.6C106.736 38.6 107.141 38.664 107.515 38.792C107.888 38.92 108.213 39.1013 108.491 39.336L108.091 39.848C107.867 39.6667 107.605 39.5173 107.307 39.4C107.008 39.2827 106.688 39.224 106.347 39.224C105.877 39.224 105.445 39.3413 105.051 39.576C104.667 39.8107 104.357 40.1307 104.123 40.536C103.899 40.9307 103.787 41.3733 103.787 41.864C103.787 42.344 103.899 42.7867 104.123 43.192C104.357 43.5867 104.672 43.9013 105.067 44.136C105.472 44.3707 105.92 44.488 106.411 44.488C106.731 44.488 107.029 44.44 107.307 44.344C107.584 44.2373 107.835 44.0987 108.059 43.928L108.475 44.392Z" fill="#619393"/>
<path d="M35.448 18.256C35.448 16.456 35.784 14.776 36.456 13.216C37.128 11.632 38.064 10.24 39.264 9.04C40.464 7.816 41.844 6.868 43.404 6.196C44.988 5.5 46.68 5.152 48.48 5.152C50.28 5.152 51.972 5.5 53.556 6.196C55.14 6.868 56.532 7.816 57.732 9.04C58.932 10.24 59.868 11.632 60.54 13.216C61.236 14.776 61.584 16.456 61.584 18.256C61.584 20.056 61.236 21.748 60.54 23.332C59.868 24.892 58.932 26.272 57.732 27.472C56.532 28.672 55.14 29.608 53.556 30.28C51.972 30.952 50.28 31.288 48.48 31.288C46.68 31.288 44.988 30.964 43.404 30.316C41.844 29.668 40.464 28.756 39.264 27.58C38.064 26.404 37.128 25.024 36.456 23.44C35.784 21.856 35.448 20.128 35.448 18.256ZM37.248 18.292C37.248 19.852 37.536 21.316 38.112 22.684C38.688 24.052 39.492 25.252 40.524 26.284C41.556 27.316 42.744 28.132 44.088 28.732C45.456 29.308 46.908 29.596 48.444 29.596C50.028 29.596 51.504 29.308 52.872 28.732C54.24 28.132 55.44 27.316 56.472 26.284C57.504 25.252 58.308 24.052 58.884 22.684C59.484 21.316 59.784 19.84 59.784 18.256C59.784 16.696 59.484 15.232 58.884 13.864C58.308 12.472 57.504 11.26 56.472 10.228C55.44 9.172 54.24 8.344 52.872 7.744C51.504 7.144 50.04 6.844 48.48 6.844C46.896 6.844 45.42 7.156 44.052 7.78C42.684 8.38 41.484 9.208 40.452 10.264C39.444 11.32 38.652 12.544 38.076 13.936C37.524 15.304 37.248 16.756 37.248 18.292ZM78.119 29.632C77.471 30.16 76.739 30.568 75.923 30.856C75.107 31.144 74.255 31.288 73.367 31.288C71.927 31.288 70.643 30.976 69.515 30.352C68.387 29.704 67.499 28.828 66.851 27.724C66.203 26.62 65.879 25.36 65.879 23.944C65.879 22.528 66.215 21.268 66.887 20.164C67.559 19.06 68.447 18.196 69.551 17.572C70.679 16.924 71.903 16.6 73.223 16.6C74.207 16.6 75.119 16.744 75.959 17.032C76.799 17.32 77.531 17.728 78.155 18.256L77.255 19.408C76.751 19 76.163 18.664 75.491 18.4C74.819 18.136 74.099 18.004 73.331 18.004C72.275 18.004 71.303 18.268 70.415 18.796C69.551 19.324 68.855 20.044 68.327 20.956C67.823 21.844 67.571 22.84 67.571 23.944C67.571 25.024 67.823 26.02 68.327 26.932C68.855 27.82 69.563 28.528 70.451 29.056C71.363 29.584 72.371 29.848 73.475 29.848C74.195 29.848 74.867 29.74 75.491 29.524C76.115 29.284 76.679 28.972 77.183 28.588L78.119 29.632ZM84.2252 10.732H85.9532V17.104H90.3092V18.472H85.9532V31H84.2252V18.472H81.2372V17.104H84.2252V10.732ZM100.36 31.288C99.0162 31.288 97.7922 30.988 96.6882 30.388C95.6082 29.764 94.7442 28.9 94.0962 27.796C93.4722 26.692 93.1602 25.408 93.1602 23.944C93.1602 22.384 93.4962 21.052 94.1682 19.948C94.8402 18.82 95.7522 17.968 96.9042 17.392C98.0562 16.792 99.3642 16.492 100.828 16.492C101.98 16.492 103.084 16.828 104.14 17.5C105.22 18.148 106.024 18.976 106.552 19.984L106.732 16.924H108.244V31H106.552V28.012C106.024 28.852 105.208 29.608 104.104 30.28C103 30.952 101.752 31.288 100.36 31.288ZM100.72 29.848C101.776 29.848 102.724 29.632 103.564 29.2C104.428 28.744 105.124 28.12 105.652 27.328C106.18 26.536 106.48 25.624 106.552 24.592V22.576C106.36 21.688 105.976 20.896 105.4 20.2C104.848 19.504 104.164 18.952 103.348 18.544C102.532 18.136 101.644 17.932 100.684 17.932C99.6282 17.932 98.6562 18.184 97.7682 18.688C96.8802 19.168 96.1722 19.852 95.6442 20.74C95.1162 21.628 94.8522 22.672 94.8522 23.872C94.8522 24.976 95.1162 25.984 95.6442 26.896C96.1722 27.784 96.8802 28.504 97.7682 29.056C98.6802 29.584 99.6642 29.848 100.72 29.848ZM119.57 31.54L112.442 16.924H114.422L119.75 28.516L124.898 16.924H126.77L119.786 31.54H119.57ZM136.929 31.288C135.465 31.288 134.169 30.964 133.041 30.316C131.913 29.668 131.025 28.792 130.377 27.688C129.753 26.56 129.441 25.3 129.441 23.908C129.441 22.54 129.777 21.292 130.449 20.164C131.121 19.036 132.021 18.136 133.149 17.464C134.301 16.792 135.573 16.456 136.965 16.456C138.645 16.456 140.049 16.948 141.177 17.932C142.329 18.916 143.157 20.2 143.661 21.784L131.637 26.428C132.093 27.412 132.777 28.228 133.689 28.876C134.625 29.5 135.717 29.812 136.965 29.812C137.733 29.812 138.465 29.668 139.161 29.38C139.881 29.092 140.517 28.72 141.069 28.264L141.933 29.488C141.261 30.016 140.481 30.448 139.593 30.784C138.729 31.12 137.841 31.288 136.929 31.288ZM131.097 23.836C131.097 24.292 131.145 24.736 131.241 25.168L141.609 21.1C141.177 20.236 140.565 19.492 139.773 18.868C138.981 18.22 138.009 17.896 136.857 17.896C135.777 17.896 134.805 18.16 133.941 18.688C133.077 19.216 132.381 19.924 131.853 20.812C131.349 21.7 131.097 22.708 131.097 23.836Z" fill="#0F0D0D"/>
<path d="M33 25C26.7354 24.7434 20.4404 24.4508 14.1966 23.6603C7.04656 22.755 16.4834 21.4717 17.7066 21.1442C21.1416 20.2245 25.4657 19.6888 28.6467 17.2885C29.267 16.8204 27.2508 17.0637 26.5499 17.0597C23.8985 17.0449 21.2468 17.0597 18.5954 17.0597C12.7303 17.0597 6.86515 17.0597 1 17.0597" stroke="#619393" stroke-linecap="round"/>
<path d="M18 32C18.2566 25.9312 18.5492 19.8328 19.3397 13.7842C20.245 6.85761 21.5283 15.9995 21.8558 17.1845C22.7755 20.5122 23.3112 24.7011 25.7115 27.7828C26.1796 28.3837 25.9363 26.4305 25.9403 25.7514C25.9551 23.1829 25.9403 20.6141 25.9403 18.0456C25.9403 12.3637 25.9403 6.68186 25.9403 0.999999" stroke="#619393" stroke-linecap="round"/>
<path d="M115.896 45.128C115.533 45.128 115.155 45.064 114.76 44.936C114.365 44.7973 114.045 44.5787 113.8 44.28L114.152 43.784C114.365 44.008 114.616 44.1893 114.904 44.328C115.203 44.456 115.517 44.52 115.848 44.52C116.211 44.52 116.541 44.4347 116.84 44.264C117.139 44.0933 117.288 43.7947 117.288 43.368C117.288 43.0693 117.203 42.84 117.032 42.68C116.872 42.52 116.664 42.392 116.408 42.296C116.163 42.1893 115.901 42.0933 115.624 42.008C115.165 41.8587 114.787 41.656 114.488 41.4C114.2 41.144 114.056 40.7813 114.056 40.312C114.056 39.8 114.232 39.3893 114.584 39.08C114.947 38.76 115.405 38.6 115.96 38.6C116.291 38.6 116.616 38.6533 116.936 38.76C117.267 38.8667 117.565 39.048 117.832 39.304L117.496 39.832C117.325 39.5973 117.096 39.4373 116.808 39.352C116.531 39.2667 116.285 39.2187 116.072 39.208C115.795 39.208 115.512 39.2933 115.224 39.464C114.947 39.624 114.808 39.8747 114.808 40.216C114.808 40.4613 114.877 40.664 115.016 40.824C115.155 40.9733 115.331 41.096 115.544 41.192C115.768 41.288 115.997 41.3787 116.232 41.464C116.541 41.56 116.829 41.6773 117.096 41.816C117.373 41.944 117.597 42.12 117.768 42.344C117.949 42.5573 118.04 42.8453 118.04 43.208C118.04 43.7627 117.859 44.2213 117.496 44.584C117.144 44.9467 116.611 45.128 115.896 45.128ZM120.315 45V32.84H121.051V40.04C121.275 39.624 121.616 39.2773 122.075 39C122.544 38.712 123.077 38.568 123.675 38.568C124.261 38.568 124.736 38.744 125.099 39.096C125.461 39.4373 125.648 39.8853 125.659 40.44V45H124.891V40.648C124.88 40.2427 124.752 39.9067 124.507 39.64C124.261 39.3733 123.904 39.2347 123.435 39.224C123.019 39.224 122.629 39.3307 122.267 39.544C121.904 39.7573 121.611 40.0453 121.387 40.408C121.173 40.7707 121.067 41.1813 121.067 41.64V45H120.315ZM127.894 41.832C127.894 41.224 128.038 40.6693 128.326 40.168C128.625 39.6667 129.025 39.272 129.526 38.984C130.038 38.6853 130.609 38.536 131.238 38.536C131.878 38.536 132.449 38.6853 132.95 38.984C133.451 39.272 133.846 39.6667 134.134 40.168C134.422 40.6693 134.566 41.224 134.566 41.832C134.566 42.44 134.422 42.9947 134.134 43.496C133.846 43.9973 133.446 44.3973 132.934 44.696C132.433 44.984 131.862 45.128 131.222 45.128C130.593 45.128 130.027 44.9893 129.526 44.712C129.025 44.424 128.625 44.0347 128.326 43.544C128.038 43.0427 127.894 42.472 127.894 41.832ZM128.646 41.848C128.646 42.3387 128.758 42.7867 128.982 43.192C129.217 43.5867 129.526 43.9013 129.91 44.136C130.305 44.3707 130.742 44.488 131.222 44.488C131.702 44.488 132.134 44.3707 132.518 44.136C132.913 43.9013 133.222 43.5867 133.446 43.192C133.681 42.7867 133.798 42.3387 133.798 41.848C133.798 41.3573 133.681 40.9147 133.446 40.52C133.222 40.1147 132.913 39.7947 132.518 39.56C132.134 39.3147 131.702 39.192 131.222 39.192C130.731 39.192 130.289 39.32 129.894 39.576C129.51 39.8213 129.206 40.1467 128.982 40.552C128.758 40.9573 128.646 41.3893 128.646 41.848ZM140.255 45.128C139.7 45.128 139.178 44.9947 138.687 44.728C138.196 44.4613 137.818 44.1093 137.551 43.672V48.008H136.799V38.696H137.471L137.519 40.088C137.818 39.6293 138.218 39.2613 138.719 38.984C139.231 38.696 139.78 38.552 140.367 38.552C140.964 38.552 141.503 38.696 141.983 38.984C142.463 39.272 142.842 39.6667 143.119 40.168C143.407 40.6587 143.551 41.224 143.551 41.864C143.551 42.4933 143.402 43.0587 143.103 43.56C142.815 44.0507 142.42 44.4347 141.919 44.712C141.428 44.9893 140.874 45.128 140.255 45.128ZM140.127 44.504C140.618 44.504 141.06 44.3867 141.455 44.152C141.86 43.9173 142.18 43.6027 142.415 43.208C142.66 42.8027 142.783 42.3547 142.783 41.864C142.783 41.3627 142.666 40.9147 142.431 40.52C142.196 40.1147 141.882 39.7947 141.487 39.56C141.103 39.3253 140.666 39.208 140.175 39.208C139.706 39.208 139.279 39.3147 138.895 39.528C138.511 39.7413 138.202 40.0293 137.967 40.392C137.732 40.7547 137.594 41.1653 137.551 41.624V42.136C137.583 42.5733 137.716 42.9733 137.951 43.336C138.196 43.6987 138.506 43.9867 138.879 44.2C139.263 44.4027 139.679 44.504 140.127 44.504Z" fill="#0F0D0D"/>
</svg>
