<svg width="24" height="24" viewBox="0 0 24 24" fill="none" xmlns="http://www.w3.org/2000/svg">
<path d="M12 11.4243C13.4221 11.4243 14.8109 10.6333 15.9103 9.19702C16.8807 7.92952 17.4599 6.36238 17.4599 5.00494C17.46 2.24523 15.0106 0 12 0C8.98938 0 6.54004 2.24523 6.54004 5.00494C6.54004 6.36238 7.11928 7.92952 8.08962 9.19702C9.18911 10.6333 10.5778 11.4243 12 11.4243ZM12 0.81613C14.5197 0.81613 16.5696 2.69524 16.5696 5.00494C16.5696 6.18316 16.0377 7.60981 15.1816 8.72824C14.267 9.92294 13.1074 10.6082 12 10.6082C10.8926 10.6082 9.73298 9.92294 8.81838 8.72824C7.96224 7.60981 7.43036 6.18316 7.43036 5.00494C7.43036 2.69524 9.4803 0.81613 12 0.81613Z" fill="#0F0D0D"/>
<path d="M20.0008 13.663C19.0388 12.2944 17.6845 11.2019 16.0841 10.5036C15.9141 10.4294 15.7117 10.4612 15.5784 10.5831C14.5058 11.5636 13.2683 12.0818 11.9997 12.0818C10.731 12.0818 9.49365 11.5636 8.4217 10.5831C8.28839 10.4612 8.08587 10.4293 7.91594 10.5035C6.31561 11.2019 4.96113 12.2944 3.99898 13.6629C3.01066 15.0687 2.48828 16.6996 2.48828 18.3794V18.3865C2.48828 18.5016 2.54134 18.6114 2.63435 18.6888C5.203 20.8242 8.52901 22.0001 11.9997 22.0001C15.4703 22.0001 18.7963 20.8242 21.365 18.6888C21.458 18.6114 21.5111 18.5017 21.5111 18.3865V18.3794C21.5112 16.6996 20.9889 15.0687 20.0008 13.663ZM11.9997 21.1841C8.81706 21.1841 5.7642 20.1276 3.38068 18.2056C3.41529 16.7444 3.88603 15.3302 4.74739 14.105C5.56453 12.9428 6.69352 12.0002 8.02539 11.3652C9.21516 12.3692 10.5832 12.8979 11.9997 12.8979C13.416 12.8979 14.7843 12.3691 15.9747 11.3651C17.3064 12.0001 18.4354 12.9428 19.2524 14.105C20.1136 15.3301 20.5842 16.7443 20.6188 18.2055C18.2353 20.1276 15.1824 21.1841 11.9997 21.1841Z" fill="#0F0D0D"/>
</svg>
