<svg width="21" height="22" viewBox="0 0 21 22" fill="none" xmlns="http://www.w3.org/2000/svg">
<path d="M17.9246 3.22184C15.9414 1.14417 13.3046 0 10.5 0C7.69539 0 5.05858 1.14417 3.07539 3.22184C1.09216 5.29947 0 8.06184 0 11C0 13.9382 1.09216 16.7005 3.07539 18.7782C5.05858 20.8558 7.69539 22 10.5 22C13.3046 22 15.9414 20.8558 17.9246 18.7782C19.9078 16.7005 21 13.9382 21 11C21 8.06184 19.9078 5.29947 17.9246 3.22184ZM10.5 21.3053C5.07593 21.3053 0.663141 16.6824 0.663141 11C0.663141 5.31764 5.07593 0.694719 10.5 0.694719C15.9241 0.694719 20.3369 5.31764 20.3369 11C20.3369 16.6824 15.9241 21.3053 10.5 21.3053Z" fill="#0F0D0D"/>
<path d="M17.7957 4.6231C17.6794 4.53545 17.5231 4.52232 17.3937 4.58926L2.74103 12.1682C2.61438 12.2337 2.5352 12.3648 2.53614 12.5074C2.53708 12.65 2.61803 12.78 2.74563 12.8438L6.57831 14.76V18.5572C6.57831 18.6565 6.61211 18.7549 6.6805 18.827C6.75616 18.9069 6.8567 18.9469 6.9573 18.9469C7.02067 18.9469 7.08405 18.931 7.14138 18.8992L11.5262 16.4631L14.8824 17.9014C14.9538 17.932 15.0328 17.9447 15.1092 17.9304C15.2665 17.9011 15.3834 17.7806 15.4132 17.6318L16.2623 13.386C17 9.49951 16.4989 11.6606 16.2598 11.6606C16.0791 11.6605 15.9351 11.1567 15.8997 11.3338L14.7615 17.0251L11.6539 15.6932C11.5463 15.6471 11.4232 15.6534 11.3206 15.7103L7.33624 17.9238V14.5258C7.33624 14.3822 7.25514 14.2511 7.12675 14.1868L3.75105 12.499L17.0415 5.62459L15.8882 11.3913C15.8413 11.6258 16.0206 11.8446 16.2598 11.8446C16.4404 11.8446 16.4645 12.1766 16.5 11.9995L17.9394 5.00007C17.9679 4.85729 17.9121 4.71071 17.7957 4.6231Z" fill="#0F0D0D"/>
<path d="M15.3394 7.7222C15.2203 7.57145 15.0071 7.53358 14.8434 7.6344L8.27505 11.6765C8.16298 11.7455 8.09473 11.8677 8.09473 11.9993V16.0414C8.09468 16.2172 8.21552 16.3698 8.38652 16.4102C8.41563 16.4171 8.44483 16.4204 8.47371 16.4204C8.61466 16.4204 8.74732 16.3414 8.81252 16.2109L10.3008 13.2343L15.31 8.22512C15.4459 8.08919 15.4585 7.87305 15.3394 7.7222ZM9.72143 12.7418C9.69269 12.7706 9.66869 12.8039 9.6505 12.8403L8.8526 14.4361V12.211L12.4918 9.97145L9.72143 12.7418Z" fill="#0F0D0D"/>
</svg>
