<svg width="20" height="22" viewBox="0 0 20 22" fill="none" xmlns="http://www.w3.org/2000/svg">
<path d="M12.0957 0H7.93454C3.57615 0 0.0302734 3.56996 0.0302734 7.95814V11.733C0.0302734 15.0009 2.02433 17.9378 5.02271 19.1339V21.581C5.02271 21.7469 5.11964 21.8969 5.27025 21.964C5.32433 21.9883 5.38174 22 5.43874 22C5.53984 22 5.6401 21.9627 5.7179 21.8915L8.13049 19.6911H12.0957C16.4541 19.6911 20 16.1212 20 11.733V7.95814C20 3.56996 16.4541 0 12.0957 0ZM19.1679 11.733C19.1679 15.659 15.9957 18.8532 12.0957 18.8532H7.9699C7.86673 18.8532 7.76729 18.8917 7.69074 18.9617L5.85478 20.6363V18.8436C5.85478 18.6659 5.7437 18.5076 5.57728 18.4489C2.75739 17.4446 0.862345 14.7457 0.862345 11.733V7.95814C0.862345 4.03207 4.03504 0.83792 7.93454 0.83792H12.0957C15.9957 0.83792 19.1679 4.03207 19.1679 7.95814V11.733Z" fill="#0F0D0D"/>
<path d="M15.5142 12.7751L12.9572 11.1026C12.6776 10.9195 12.3448 10.8575 12.019 10.9254C11.6929 10.9945 11.4125 11.1885 11.2306 11.4713L11.1104 11.6573C10.0038 11.289 8.78352 10.8185 8.05296 8.68895L8.35542 8.42416C8.87463 7.96959 8.92913 7.17441 8.47773 6.65071L6.47743 4.33344C6.32683 4.15873 6.06389 4.14072 5.89041 4.29196L4.63439 5.39131C3.53273 6.35576 4.04737 7.78232 4.21669 8.25113C4.22418 8.27208 4.23333 8.29219 4.24415 8.31188C4.28784 8.39065 5.33084 10.2651 7.01537 11.9929C8.70655 13.7278 11.7598 15.3299 11.8535 15.3764C12.2021 15.6043 12.5944 15.7136 12.9826 15.7136C13.664 15.7136 14.3322 15.3772 14.7308 14.7605L15.6369 13.3553C15.7617 13.1605 15.7068 12.9012 15.5142 12.7751ZM14.0326 14.3038C13.6578 14.8854 12.8831 15.0504 12.2716 14.6533C12.2412 14.6373 9.20788 13.0465 7.60905 11.4063C6.11465 9.87335 5.1224 8.17027 4.98719 7.93272C4.65769 7.00221 4.71594 6.43033 5.18023 6.02394L6.12255 5.19943L7.84994 7.20038C8.00345 7.37802 7.98556 7.63778 7.81 7.79153L7.29952 8.23815C7.17513 8.34707 7.12603 8.51927 7.17471 8.67763C8.04506 11.5257 9.73749 12.085 10.9731 12.4935L11.1533 12.5534C11.3334 12.6146 11.5306 12.5446 11.6338 12.3846L11.9288 11.9271C11.9895 11.8324 12.0827 11.7683 12.1909 11.7453C12.2994 11.7218 12.4101 11.7436 12.5041 11.8052L14.7124 13.2493L14.0326 14.3038Z" fill="#0F0D0D"/>
<path d="M10.9648 6.80742C10.7434 6.74332 10.5134 6.87278 10.4505 7.09567C10.3877 7.31814 10.5159 7.54982 10.7368 7.61308C11.3567 7.79072 11.8505 8.28887 12.0252 8.91354C12.0768 9.09788 12.2437 9.21896 12.4255 9.21896C12.4629 9.21896 12.5008 9.21393 12.5386 9.20346C12.7595 9.14061 12.8885 8.90935 12.8261 8.68646C12.5736 7.78402 11.8601 7.06383 10.9648 6.80742Z" fill="#0F0D0D"/>
<path d="M14.1318 9.30889C14.1692 9.30889 14.2071 9.30386 14.2449 9.29339C14.4663 9.23054 14.5948 8.99886 14.5324 8.77639C14.0415 7.02388 12.6565 5.62623 10.9175 5.12767C10.6966 5.06357 10.4665 5.19387 10.4037 5.41633C10.3408 5.6388 10.469 5.87049 10.6899 5.93375C12.1531 6.35271 13.3184 7.52957 13.7315 9.00389C13.7835 9.18823 13.95 9.30889 14.1318 9.30889Z" fill="#0F0D0D"/>
<path d="M10.7372 3.17656C10.5159 3.11246 10.2858 3.24192 10.223 3.46523C10.1602 3.68769 10.2883 3.91938 10.5092 3.98264C12.9884 4.69278 14.9633 6.68619 15.6631 9.18445C15.7147 9.36879 15.8815 9.48987 16.0633 9.48987C16.1008 9.48987 16.1386 9.48484 16.1765 9.47437C16.3974 9.41152 16.5264 9.17984 16.464 8.95737C15.6864 6.18092 13.4922 3.9663 10.7372 3.17656Z" fill="#0F0D0D"/>
</svg>
